<?xml version="1.0" standalone="no"?><svg xmlns="http://www.w3.org/2000/svg" viewBox="0 0 1440 320"><path fill="#986CAC" fill-opacity="1" d="M0,128L30,149.3C60,171,120,213,180,213.3C240,213,300,171,360,160C420,149,480,171,540,154.7C600,139,660,85,720,90.7C780,96,840,160,900,208C960,256,1020,288,1080,250.7C1140,213,1200,107,1260,74.7C1320,43,1380,85,1410,106.7L1440,128L1440,320L1410,320C1380,320,1320,320,1260,320C1200,320,1140,320,1080,320C1020,320,960,320,900,320C840,320,780,320,720,320C660,320,600,320,540,320C480,320,420,320,360,320C300,320,240,320,180,320C120,320,60,320,30,320L0,320Z"></path></svg>